<svg width="390" height="35" viewBox="0 0 390 35" fill="none" xmlns="http://www.w3.org/2000/svg">
<mask id="mask0_1_210" style="mask-type:luminance" maskUnits="userSpaceOnUse" x="0" y="0" width="390" height="35">
<path d="M390 0H0V34.917H390V0Z" fill="white"/>
</mask>
<g mask="url(#mask0_1_210)">
<path d="M6.55616 2.23908L-2.84514 5.8479L17.3756 58.5248L26.7769 54.916L6.55616 2.23908Z" fill="#303941"/>
<path d="M27.6465 2.23908L18.2452 5.8479L38.4659 58.5248L47.8672 54.916L27.6465 2.23908Z" fill="#303941"/>
<path d="M48.7368 2.23908L39.3355 5.8479L59.5563 58.5248L68.9576 54.916L48.7368 2.23908Z" fill="#303941"/>
<path d="M69.8271 2.23908L60.4258 5.8479L80.6466 58.5248L90.0479 54.916L69.8271 2.23908Z" fill="#303941"/>
<path d="M90.9174 2.23908L81.5162 5.8479L101.737 58.5248L111.138 54.916L90.9174 2.23908Z" fill="#303941"/>
<path d="M112.008 2.23908L102.606 5.8479L122.827 58.5248L132.229 54.916L112.008 2.23908Z" fill="#303941"/>
<path d="M133.098 2.23908L123.697 5.8479L143.918 58.5248L153.319 54.916L133.098 2.23908Z" fill="#303941"/>
<path d="M154.188 2.23908L144.787 5.8479L165.008 58.5248L174.409 54.916L154.188 2.23908Z" fill="#303941"/>
<path d="M175.279 2.23908L165.877 5.8479L186.098 58.5248L195.5 54.916L175.279 2.23908Z" fill="#303941"/>
<path d="M196.369 2.23908L186.968 5.8479L207.189 58.5248L216.59 54.916L196.369 2.23908Z" fill="#303941"/>
<path d="M217.459 2.23908L208.058 5.8479L228.279 58.5248L237.68 54.916L217.459 2.23908Z" fill="#303941"/>
<path d="M238.55 2.23908L229.148 5.8479L249.369 58.5248L258.771 54.916L238.55 2.23908Z" fill="#303941"/>
<path d="M259.64 2.23908L250.239 5.8479L270.46 58.5248L279.861 54.916L259.64 2.23908Z" fill="#303941"/>
<path d="M280.639 1.53241L271.238 5.14124L291.458 57.8181L300.86 54.2093L280.639 1.53241Z" fill="#303941"/>
<path d="M301.821 2.23908L292.419 5.8479L312.64 58.5248L322.041 54.916L301.821 2.23908Z" fill="#303941"/>
<path d="M322.911 2.23908L313.51 5.8479L333.73 58.5248L343.132 54.916L322.911 2.23908Z" fill="#303941"/>
<path d="M344.001 2.23908L334.6 5.8479L354.821 58.5248L364.222 54.916L344.001 2.23908Z" fill="#303941"/>
<path d="M365.092 2.23908L355.69 5.8479L375.911 58.5248L385.312 54.916L365.092 2.23908Z" fill="#303941"/>
<path d="M386.182 2.23908L376.781 5.8479L397.001 58.5248L406.403 54.916L386.182 2.23908Z" fill="#303941"/>
</g>
</svg>
