<?xml version="1.0" encoding="utf-8"?>
<!-- Generator: Adobe Illustrator 25.2.0, SVG Export Plug-In . SVG Version: 6.00 Build 0)  -->
<svg version="1.1" id="Layer_1" xmlns="http://www.w3.org/2000/svg" xmlns:xlink="http://www.w3.org/1999/xlink" x="0px" y="0px"
	 viewBox="0 0 80 103" style="enable-background:new 0 0 80 103;" xml:space="preserve">
<style type="text/css">
	.st0{fill:none;}
	.st1{fill:#DBAF91;}
	.st2{fill:#161717;}
	.st3{fill:#1E1D1D;}
	.st4{fill:#7C6559;}
	.st5{fill:#0C0D0D;}
	.st6{fill:#E2E2E2;}
	.st7{fill:#FFFFFF;}
	.st8{fill:#565656;}
	.st9{fill:#B9907B;}
	.st10{fill:#787677;}
	.st11{fill:#91715E;}
	.st12{fill:none;stroke:#A96055;stroke-linecap:round;stroke-miterlimit:10;}
	.st13{fill:none;stroke:#FFFFFF;stroke-linecap:round;stroke-miterlimit:10;}
</style>
<path class="st0" d="M80,0H0v103h80V0z"/>
<image style="display:none;overflow:visible;" width="160" height="206" xlink:href="B106A6F7.jpg"  transform="matrix(0.2029 0 0 0.2029 30.9078 6.9)">
</image>
<path class="st1" d="M36,59.1c-0.2-0.3-0.1-1-0.1-1.6s-0.1-1.3-0.1-1.8c0-0.2-6.6-10.1-6.9-10.7c-0.1-0.3-1.1-7-0.6-7.1
	c0-1.1,0.2-2.9,1.2-4.8c0.3-0.7,0.7-1.2,1.1-1.7c1.3,1.8,5.6,7.3,9.8,7.6c0.5,0,2,0.1,3.8,0c1.8-0.1,3.1-0.1,4.5-0.4
	c3.4-0.7,3.9-2,5-1.6c2.4,0.8,2.3,8.3-1.4,13.9c-1.9,3-3.5,5-5.2,5.9c-2.9,1.5-2.8,2.4-5.2,2.4C40.9,59.3,36.4,59.6,36,59.1z"/>
<path class="st1" d="M45.1,57.7c2.8-1.1,3.2-1.4,4.6-2.1c0.3-0.2,0.4-0.6,2.5-2.9c1.5-1.7,2-2.3,2.3-2.8c1-1.7,2-3.8,2-3.8
	c0.5,0,1.2,0.1,2.1-1c0.8-0.9,1-1.7,1.2-3c0.2-1.3,0.2-2.6-0.7-2.8c-0.8-0.3-2-0.3-2.9-0.3c-1.4,0-1.2-2.5-2.4-2.8
	c-0.6-0.2-0.8,0.3-1.5,0.2c-1.3-0.3-3.2-3.2-3.7-3.2c-0.7,0-0.5,3.7,0.4,6.1c0.8,2.2,3.1,2.3,3.3,4.2c0,0.4-0.4,1.3-1.2,3.1
	c-0.9,2-1.4,3-1.9,4c-0.5,0.9-0.6,0.9-2.4,3.5c-2.1,3-2.3,3.5-2.8,3.8c0,0-0.1,0-0.1,0.1c-2.2,0.8-5.6-1.5-5.3-1.2
	C39,56.9,40,57.7,40,59c0,0.5-0.3,0.6-0.2,0.8c0.1,0.5,2.3,0.6,10.1-0.6c0-0.6-0.4-1.2-0.3-1.9c0-1.2,0.3-2.1,0.5-2.6"/>
<path class="st1" d="M39.8,57.7c-2.8-1.1-3.2-1.4-4.6-2.1c-0.3-0.2-0.4-0.6-2.5-2.9c-1.5-1.7-2-2.3-2.3-2.8c-1-1.7-2-3.8-2-3.8
	c-0.5,0-1.2,0.1-2.1-1c-0.8-0.9-1.2-1.7-1.2-3c0-1.3-0.2-2.6,0.7-2.8c0.8-0.3,2-0.3,2.9-0.3c1.4,0,1.2-2.5,2.4-2.8
	c0.6-0.2,0.8,0.3,1.5,0.2c1.3-0.3,3.2-3.2,3.7-3.2c0.7,0,0.5,3.7-0.4,6.1c-0.8,2.2-3.1,2.3-3.3,4.2c0,0.4,0.4,1.3,1.2,3.1
	c0.9,2,1.4,3,1.9,4c0.5,0.9,0.6,0.9,2.4,3.5c2.1,3,2.3,3.5,2.8,3.8c0,0,0.1,0,0.1,0.1c2.2,0.8,5.6-1.5,5.3-1.2
	c-0.3,0.3-1.4,1.1-1.3,2.4c0,0.5,0.3,0.6,0.2,0.8c-0.1,0.5-2.3,0.6-10.1-0.6c0-0.6,0.4-1.2,0.3-1.9c0-1.2-0.3-2.1-0.5-2.6"/>
<path class="st2" d="M56.8,39c0.3-2.4,0.4-4.3,0.7-6.7c0.3-2.2,0.3-4.8,0.3-7c-0.2-0.8-1.2-1.8-3.7-2.9c-3.6-1.7-8.3-2.7-10.3-3
	c-0.5-0.1-1.7-0.3-2.6,0.4c-0.1,0-0.9,0.7-0.9,1.7c0,1.1,0.9,1.7,0.7,1.9c-0.3,0.4-2.7-1.1-3-0.7c-0.2,0.2,0.8,0.9,0.6,1.6
	c-0.2,0.9-2,0.8-2.2,1.7c-0.1,0.4,0.1,0.7,0.8,1.5c2.1,2.9,1.9,3.2,2.8,3.7c1.2,0.6,1.9,0.2,2.3,0.8c0.5,0.7-0.3,1.5-0.2,2.8
	c0.1,1.2,1,0.9,1.6,2.4c0.6,1.4-1.5,1.5-0.9,2c0.1,0.1,1.3,0.6,1.5,0.7c0.9,0.3,7.2,0.3,7.4-0.2c0.6-2.3-0.6-4.3-0.7-4.9
	c-0.2-1.1,0.5,2.9,4.7,4.3C56,39.3,56.4,38.9,56.8,39z"/>
<path class="st3" d="M28.4,38.8c0,0.5-1.6-5.7-2.7-10.3c-0.1-0.2-0.2-0.7-0.2-1.9c0-0.4,1.4-3.9,1.8-4.1c0.8-0.4,0.8,0,1.5,0.4
	c0.7,0.5,1.2,0.5,1.5,0.6c0.5,0,0.6-0.7,1.8-1.9c1.1-1,2.5-0.5,3.7-1.5c1-0.8,0.7-1.6,1.7-2.4c0.6-0.5,1.2-0.4,2.8-0.7
	c1.9-0.3,4.4,1,4.7,1.4c0.1,0.1-3.5,0.8-3.9,2.2C41.2,21,41,21.3,41,21.7c0,0.4,0.8,2.3,0.7,2.5c-0.1,0.2-1.6-0.3-2-0.4
	c-2-0.4,0-0.4-0.4,0.7c-0.2,0.8-0.5,0.8,0.4,1.9c3,3.6,2.7,5,3.5,6.1c1.1,1.7,0.9,1.7,1,3.4c0.1,0.8,2,3.5,1.1,4.3
	c-3,2.4-11.4-0.9-12.8-2.1c-0.4-0.4-1.5-3.4-1.5-3.4c-1.1-1.3-1-2.5-1.1-2.8c-0.2-1,6.3,6.2,4.5,6.9c-0.3,0.1-4.3-4.9-4.6-4.1
	C28.3,38.3,28.4,38.3,28.4,38.8z"/>
<path class="st4" d="M52.5,53.6"/>
<path class="st5" d="M38.7,56.6"/>
<path class="st0" d="M34.2,54.2"/>
<path class="st6" d="M66.2,84.4c0,0,0.1,0,0.1,0.1c1.1,0.5,2.7,0.7,3.8-0.1c1-0.7,1.1-2,1.3-3.1c0.2-1.6-0.2-2.8-0.7-4.5
	c-1.8-6.1-1.8-7.2-3.1-8.1c-0.5-0.3-1.5-0.8-3-0.8"/>
<path class="st6" d="M20.1,84.4c0,0-0.1,0-0.1,0.1c-1.1,0.5-2.7,0.7-3.8-0.1c-1-0.7-1.1-2-1.3-3.1c-0.2-1.6,0.2-2.8,0.7-4.5
	c1.8-6.1,1.8-7.2,3.1-8.1c0.5-0.3,1.5-0.8,3-0.8"/>
<circle class="st1" cx="67.3" cy="80.8" r="3.6"/>
<circle class="st1" cx="19.2" cy="80.8" r="3.6"/>
<path class="st7" d="M12.2,84.4"/>
<rect x="19.8" y="84.4" class="st8" width="46.3" height="1.6"/>
<path class="st9" d="M49.8,55.5c-1.6,0.4-2.7,1.3-3.5,1.5c-0.4,0.1-0.6,0.3-0.9,0.3c-0.4,0.1-0.7,0.2-1,0.3C44.2,57.7,43.7,58,43,58
	c-0.5,0-1-0.1-1.5-0.2c-0.7-0.2-1.7-0.6-2.8-1.2c0.4,0.4,0.6,0.7,0.8,0.9c0.3,0.3,0.4,0.5,0.5,0.7c0.1,0.3,0,0.6,0,0.8l10-0.1
	c0-0.1-0.1-0.2-0.2-0.3c0-0.2-0.1-0.3-0.1-0.5c0-0.1-0.1-0.4-0.1-0.6C49.6,57.1,49.6,56,49.8,55.5z"/>
<rect x="18.4" y="58.8" class="st10" width="48.9" height="25.6"/>
<path class="st5" d="M38.2,53.2"/>
<g>
	<circle class="st7" cx="36.7" cy="44.5" r="3.2"/>
	<circle class="st5" cx="37.4" cy="45.7" r="1.8"/>
	<path class="st1" d="M30.3,44.2c1.7,1.4,4.1-1.2,7.3-0.1c1.6,0.5,2.3,1.6,2.5,1.3c0.3-0.3,1.2-2.6-0.2-4.2
		c-0.4-0.4-2.3-0.2-2.8-0.5c-0.8-0.6-2.6-1.9-4.7-1.3c-1.4,0.4-3,1.7-3,3.1C29.5,43,29.7,43.7,30.3,44.2z"/>
</g>
<g>
	<circle class="st7" cx="48.2" cy="44.5" r="3.2"/>
	<circle class="st5" cx="47.5" cy="45.7" r="1.8"/>
	<path class="st1" d="M54.6,44.2c-1.7,1.4-4.1-1.2-7.3-0.1c-1.6,0.5-2.3,1.6-2.5,1.3c-0.3-0.3-1.2-2.6,0.2-4.2
		c0.4-0.4,2.3-0.2,2.8-0.5c0.8-0.6,2.3-1,4.4-0.4c1.4,0.4,3.3,0.8,3.3,2.2C55.4,43,55.2,43.7,54.6,44.2z"/>
</g>
<path class="st1" d="M49.7,56.1"/>
<path class="st5" d="M44.8,44.1c0.8-0.2,2.4-0.6,5.3-1.3c1.3,0.8,2,1.1,2,1c0.1-0.1-0.5-0.7-1.8-1.7c-1.9,0.3-3.8,0.5-5.6,0.8"/>
<path class="st5" d="M39.8,44.1c-0.8-0.2-2.4-0.6-5.3-1.3c-1.3,0.8-2,1.1-2,1c-0.1-0.1,0.5-0.7,1.8-1.7c1.9,0.3,3.8,0.5,5.6,0.8"/>
<path class="st11" d="M46.4,60"/>
<path class="st12" d="M39.4,52.9c0.1,0.1,1.5,1.3,3.6,1c1.5-0.2,2.2-1,2.4-1.2"/>
<path class="st5" d="M64.8,39.3"/>
<circle class="st13" cx="42.8" cy="71.8" r="2.3"/>
</svg>
