<svg width="384" height="443" viewBox="0 0 384 443" fill="none" xmlns="http://www.w3.org/2000/svg">
<g clip-path="url(#clip0_53_2)">
<path d="M141.35 337.67C210.242 337.67 266.09 316.502 266.09 290.39C266.09 264.278 210.242 243.11 141.35 243.11C72.458 243.11 16.61 264.278 16.61 290.39C16.61 316.502 72.458 337.67 141.35 337.67Z" fill="#494977"/>
<path d="M272.682 367.69C287.669 361.47 290.288 333.466 278.532 305.14C266.776 276.814 245.097 258.894 230.11 265.114C215.123 271.334 212.504 299.339 224.26 327.664C236.017 355.99 257.696 373.91 272.682 367.69Z" fill="#494977"/>
<path d="M283.838 377.692C288.294 359.656 284.488 343.201 275.336 340.94C266.184 338.678 255.151 351.466 250.694 369.503C246.238 387.539 250.044 403.994 259.196 406.255C268.348 408.517 279.381 395.729 283.838 377.692Z" fill="#2D2D51"/>
<path d="M58.5661 327.765C70.3222 299.44 67.7033 271.435 52.7166 265.215C37.73 258.995 16.0507 276.915 4.29467 305.241C-7.46138 333.567 -4.84246 361.571 10.1442 367.791C25.1308 374.011 46.8101 356.091 58.5661 327.765Z" fill="#494977"/>
<path d="M23.5943 406.399C32.7465 404.137 36.5529 387.683 32.096 369.646C27.6391 351.61 16.6068 338.822 7.45456 341.084C-1.69766 343.345 -5.504 359.8 -1.04713 377.836C3.40974 395.873 14.4421 408.661 23.5943 406.399Z" fill="#2D2D51"/>
<path d="M281.964 385.315C286.239 368.014 282.286 352.154 273.134 349.893C263.981 347.631 253.096 359.824 248.821 377.126C244.546 394.427 248.499 410.287 257.651 412.548C266.803 414.81 277.689 402.617 281.964 385.315Z" fill="#FFCA9F"/>
<path d="M261.862 414.728C269.153 413.366 274.154 407.394 273.033 401.39C271.911 395.386 265.091 391.622 257.8 392.984C250.509 394.346 245.508 400.317 246.629 406.322C247.751 412.326 254.571 416.09 261.862 414.728Z" fill="#F2BE97"/>
<path d="M23.6738 411.483C32.826 409.222 36.7795 393.362 32.5041 376.061C28.2287 358.759 17.3435 346.566 8.19131 348.828C-0.960907 351.089 -4.91439 366.949 -0.639028 384.25C3.63633 401.552 14.5215 413.745 23.6738 411.483Z" fill="#FFCA9F"/>
<path d="M34.7441 405.262C35.8656 399.257 30.8642 393.286 23.5731 391.924C16.282 390.562 9.46225 394.326 8.34072 400.33C7.21919 406.334 12.2206 412.306 19.5117 413.668C26.8028 415.03 33.6225 411.266 34.7441 405.262Z" fill="#F2BE97"/>
<path d="M138.59 265.87C156.528 265.87 171.07 254.203 171.07 239.81C171.07 225.417 156.528 213.75 138.59 213.75C120.652 213.75 106.11 225.417 106.11 239.81C106.11 254.203 120.652 265.87 138.59 265.87Z" fill="#FFCA9F"/>
<path d="M138.47 255.06C156.563 255.06 171.23 245.542 171.23 233.8C171.23 222.058 156.563 212.54 138.47 212.54C120.377 212.54 105.71 222.058 105.71 233.8C105.71 245.542 120.377 255.06 138.47 255.06Z" fill="#EAB892"/>
<path d="M136.39 248.31C183.053 248.31 220.88 199.388 220.88 139.04C220.88 78.6918 183.053 29.77 136.39 29.77C89.7275 29.77 51.9 78.6918 51.9 139.04C51.9 199.388 89.7275 248.31 136.39 248.31Z" fill="#FFCA9F"/>
<path d="M196.734 140.101C213.529 135.355 224.563 122.378 221.381 111.116C218.198 99.8546 202.004 94.5725 185.209 99.3185C168.415 104.065 157.38 117.041 160.563 128.303C163.745 139.565 179.94 144.847 196.734 140.101Z" fill="#EAB892"/>
<path d="M136.42 153.99C160.096 153.99 179.29 144.472 179.29 132.73C179.29 120.988 160.096 111.47 136.42 111.47C112.744 111.47 93.55 120.988 93.55 132.73C93.55 144.472 112.744 153.99 136.42 153.99Z" fill="#EAB892"/>
<path d="M133.277 136.717C137.86 126.003 123.793 109.711 101.857 100.327C79.921 90.9433 58.423 92.0219 53.8398 102.736C49.2566 113.45 63.3238 129.742 85.2597 139.126C107.196 148.51 128.694 147.431 133.277 136.717Z" fill="#EAB892"/>
<path d="M225.53 162.34C233.577 162.34 240.1 152.822 240.1 141.08C240.1 129.338 233.577 119.82 225.53 119.82C217.483 119.82 210.96 129.338 210.96 141.08C210.96 152.822 217.483 162.34 225.53 162.34Z" fill="#FFCA9F"/>
<path d="M235.146 145.926C236.727 139.03 234.754 132.693 230.739 131.772C226.723 130.851 222.185 135.694 220.603 142.59C219.021 149.485 220.995 155.822 225.01 156.743C229.026 157.665 233.564 152.821 235.146 145.926Z" fill="#EAB892"/>
<path d="M48.31 163.65C56.3568 163.65 62.88 154.132 62.88 142.39C62.88 130.648 56.3568 121.13 48.31 121.13C40.2632 121.13 33.74 130.648 33.74 142.39C33.74 154.132 40.2632 163.65 48.31 163.65Z" fill="#FFCA9F"/>
<path d="M48.0378 156.74C52.0536 155.818 54.0266 149.482 52.4448 142.586C50.8629 135.69 46.3252 130.847 42.3094 131.768C38.2937 132.689 36.3206 139.026 37.9025 145.922C39.4843 152.817 44.0221 157.661 48.0378 156.74Z" fill="#EAB892"/>
<path d="M191.39 138.68C213.244 138.68 230.96 113.357 230.96 82.12C230.96 50.8828 213.244 25.56 191.39 25.56C169.536 25.56 151.82 50.8828 151.82 82.12C151.82 113.357 169.536 138.68 191.39 138.68Z" fill="#161616"/>
<path d="M86.94 133.29C109.562 133.29 127.9 107.967 127.9 76.73C127.9 45.4928 109.562 20.17 86.94 20.17C64.3184 20.17 45.98 45.4928 45.98 76.73C45.98 107.967 64.3184 133.29 86.94 133.29Z" fill="#161616"/>
<path d="M214.81 145.35C216.196 145.35 217.32 134.775 217.32 121.73C217.32 108.685 216.196 98.11 214.81 98.11C213.424 98.11 212.3 108.685 212.3 121.73C212.3 134.775 213.424 145.35 214.81 145.35Z" fill="#161616"/>
<path d="M56.22 141.74C57.6559 141.74 58.82 131.165 58.82 118.12C58.82 105.075 57.6559 94.5 56.22 94.5C54.7841 94.5 53.62 105.075 53.62 118.12C53.62 131.165 54.7841 141.74 56.22 141.74Z" fill="#161616"/>
<path d="M136.92 148.24C180.981 148.24 216.7 115.055 216.7 74.12C216.7 33.1847 180.981 0 136.92 0C92.8587 0 57.14 33.1847 57.14 74.12C57.14 115.055 92.8587 148.24 136.92 148.24Z" fill="#1C1C1C"/>
<path d="M96.7 189.92C99.8315 189.92 102.37 182.873 102.37 174.18C102.37 165.487 99.8315 158.44 96.7 158.44C93.5685 158.44 91.03 165.487 91.03 174.18C91.03 182.873 93.5685 189.92 96.7 189.92Z" fill="#A0795C"/>
<path d="M171.24 189.92C174.371 189.92 176.91 182.873 176.91 174.18C176.91 165.487 174.371 158.44 171.24 158.44C168.109 158.44 165.57 165.487 165.57 174.18C165.57 182.873 168.109 189.92 171.24 189.92Z" fill="#A0795C"/>
<path d="M163.09 209.75C163.09 207.91 151.09 212.54 136.39 212.54C121.69 212.54 109.69 207.91 109.69 209.75C109.69 211.59 121.64 218.2 136.39 218.2C151.14 218.2 163.09 211.59 163.09 209.75Z" fill="#A0795C"/>
<path d="M19.62 417.31L266.09 417.31V290.4H19.62L19.62 417.31Z" fill="#5B5B5B"/>
<path d="M264.08 417.3H23.37V425.58H264.08V417.3Z" fill="#333333"/>
<path d="M136.5 442.6C221.828 442.6 291 440.129 291 437.08C291 434.031 221.828 431.56 136.5 431.56C51.172 431.56 -18 434.031 -18 437.08C-18 440.129 51.172 442.6 136.5 442.6Z" fill="#1C2023"/>
<path d="M354.19 440.46C370.455 440.46 383.64 439.265 383.64 437.79C383.64 436.315 370.455 435.12 354.19 435.12C337.925 435.12 324.74 436.315 324.74 437.79C324.74 439.265 337.925 440.46 354.19 440.46Z" fill="#1C2023"/>
<path d="M358.09 280.92H355.14C354.229 280.92 353.49 281.659 353.49 282.57V304.47C353.49 305.381 354.229 306.12 355.14 306.12H358.09C359.001 306.12 359.74 305.381 359.74 304.47V282.57C359.74 281.659 359.001 280.92 358.09 280.92Z" fill="#D4D4D8"/>
<path d="M347.44 261.05L345.467 262.023C344.649 262.426 344.314 263.416 344.717 264.233L354.406 283.873C354.81 284.69 355.799 285.026 356.616 284.622L358.589 283.649C359.406 283.246 359.742 282.256 359.339 281.439L349.649 261.799C349.246 260.982 348.257 260.647 347.44 261.05Z" fill="#D4D4D8"/>
<path d="M368.54 293.52H339.83C334.114 293.52 329.48 298.154 329.48 303.87V418.73C329.48 424.446 334.114 429.08 339.83 429.08H368.54C374.256 429.08 378.89 424.446 378.89 418.73V303.87C378.89 298.154 374.256 293.52 368.54 293.52Z" fill="#494977"/>
<path d="M352.53 393.288C352.226 393.096 352.074 392.856 352.074 392.568C352.074 392.344 352.162 392.16 352.338 392.016C352.514 391.872 352.746 391.832 353.034 391.896H353.058C354.93 392.344 356.442 393.344 357.594 394.896C358.73 396.432 359.298 398.2 359.298 400.2C359.298 402.568 358.522 404.584 356.97 406.248C355.418 407.896 353.426 408.72 350.994 408.72C348.674 408.72 346.754 407.952 345.234 406.416C343.698 404.88 342.866 402.976 342.738 400.704C342.658 399.552 342.722 398.504 342.93 397.56C343.122 396.616 343.394 395.856 343.746 395.28C344.082 394.704 344.474 394.216 344.922 393.816C345.354 393.4 345.762 393.112 346.146 392.952C346.514 392.776 346.858 392.672 347.178 392.64C348.09 392.544 348.794 392.76 349.29 393.288C349.786 393.816 350.018 394.48 349.986 395.28C349.938 396.896 348.938 397.72 346.986 397.752C345.93 397.768 345.162 398.024 344.682 398.52C344.202 399.016 344.042 399.696 344.202 400.56C344.33 401.28 344.794 401.888 345.594 402.384C346.394 402.864 347.466 403.096 348.81 403.08C349.978 403.064 351.026 402.88 351.954 402.528C352.882 402.176 353.618 401.728 354.162 401.184C354.69 400.624 355.09 400.032 355.362 399.408C355.634 398.768 355.746 398.144 355.698 397.536C355.65 396.944 355.538 396.424 355.362 395.976C355.17 395.512 354.89 395.104 354.522 394.752C354.154 394.4 353.858 394.144 353.634 393.984C353.394 393.824 353.026 393.592 352.53 393.288ZM347.106 383.638C347.106 381.654 347.674 379.966 348.81 378.574C349.93 377.166 351.362 376.462 353.106 376.462C354.85 376.462 356.29 377.166 357.426 378.574C358.546 379.966 359.106 381.654 359.106 383.638C359.106 385.638 358.546 387.334 357.426 388.726C356.306 390.118 354.866 390.814 353.106 390.814C351.346 390.814 349.906 390.118 348.786 388.726C347.666 387.334 347.106 385.638 347.106 383.638ZM357.594 382.294C357.37 381.318 355.73 381.238 352.674 382.054C349.698 382.822 348.346 383.766 348.618 384.886C348.842 385.83 350.49 385.918 353.562 385.15C354.874 384.83 355.914 384.422 356.682 383.926C357.434 383.414 357.738 382.87 357.594 382.294ZM343.074 369.287C343.09 369.639 343.266 369.895 343.602 370.055C343.922 370.215 344.274 370.295 344.658 370.295C345.058 370.295 345.49 370.215 345.954 370.055C346.418 369.895 346.882 369.567 347.346 369.071C347.794 368.559 348.042 367.935 348.09 367.199V366.167C348.09 366.039 348.138 365.927 348.234 365.831C348.33 365.735 348.442 365.687 348.57 365.687H349.122C349.25 365.687 349.362 365.735 349.458 365.831C349.554 365.927 349.602 366.039 349.602 366.167V368.183H355.146C355.562 368.183 355.93 368.103 356.25 367.943C356.554 367.783 356.786 367.607 356.946 367.415C357.09 367.207 357.266 367.031 357.474 366.887C357.666 366.743 357.866 366.679 358.074 366.695C358.682 366.743 358.986 368.175 358.986 370.991C358.986 371.279 358.978 371.607 358.962 371.975C358.946 372.327 358.914 372.775 358.866 373.319C358.802 373.863 358.706 374.319 358.578 374.687C358.434 375.055 358.266 375.255 358.074 375.287C357.818 375.335 357.578 375.239 357.354 374.999C357.114 374.743 356.818 374.479 356.466 374.207C356.098 373.919 355.658 373.775 355.146 373.775H349.602V375.143C349.602 375.271 349.554 375.383 349.458 375.479C349.362 375.575 349.25 375.623 349.122 375.623H348.57C348.442 375.623 348.33 375.575 348.234 375.479C348.138 375.383 348.09 375.271 348.09 375.143V373.847C347.258 374.263 346.506 374.471 345.834 374.471C344.698 374.455 343.818 373.983 343.194 373.055C342.554 372.111 342.202 370.831 342.138 369.215C342.106 368.175 342.218 367.207 342.474 366.311C342.73 365.415 343.09 364.783 343.554 364.415C343.97 364.159 344.394 364.047 344.826 364.079C345.258 364.095 345.626 364.311 345.93 364.727C346.234 365.143 346.354 365.671 346.29 366.311C346.226 366.855 346.018 367.279 345.666 367.583C345.314 367.871 344.946 368.055 344.562 368.135C344.162 368.199 343.81 368.327 343.506 368.519C343.202 368.695 343.058 368.951 343.074 369.287ZM343.074 358.483C343.09 358.835 343.266 359.091 343.602 359.251C343.922 359.411 344.274 359.491 344.658 359.491C345.058 359.491 345.49 359.411 345.954 359.251C346.418 359.091 346.882 358.763 347.346 358.267C347.794 357.755 348.042 357.131 348.09 356.395V355.363C348.09 355.235 348.138 355.123 348.234 355.027C348.33 354.931 348.442 354.883 348.57 354.883H349.122C349.25 354.883 349.362 354.931 349.458 355.027C349.554 355.123 349.602 355.235 349.602 355.363V357.379H355.146C355.562 357.379 355.93 357.299 356.25 357.139C356.554 356.979 356.786 356.803 356.946 356.611C357.09 356.403 357.266 356.227 357.474 356.083C357.666 355.939 357.866 355.875 358.074 355.891C358.682 355.939 358.986 357.371 358.986 360.187C358.986 360.475 358.978 360.803 358.962 361.171C358.946 361.523 358.914 361.971 358.866 362.515C358.802 363.059 358.706 363.515 358.578 363.883C358.434 364.251 358.266 364.451 358.074 364.483C357.818 364.531 357.578 364.435 357.354 364.195C357.114 363.939 356.818 363.675 356.466 363.403C356.098 363.115 355.658 362.971 355.146 362.971H349.602V364.339C349.602 364.467 349.554 364.579 349.458 364.675C349.362 364.771 349.25 364.819 349.122 364.819H348.57C348.442 364.819 348.33 364.771 348.234 364.675C348.138 364.579 348.09 364.467 348.09 364.339V363.043C347.258 363.459 346.506 363.667 345.834 363.667C344.698 363.651 343.818 363.179 343.194 362.251C342.554 361.307 342.202 360.027 342.138 358.411C342.106 357.371 342.218 356.403 342.474 355.507C342.73 354.611 343.09 353.979 343.554 353.611C343.97 353.355 344.394 353.243 344.826 353.275C345.258 353.291 345.626 353.507 345.93 353.923C346.234 354.339 346.354 354.867 346.29 355.507C346.226 356.051 346.018 356.475 345.666 356.779C345.314 357.067 344.946 357.251 344.562 357.331C344.162 357.395 343.81 357.523 343.506 357.715C343.202 357.891 343.058 358.147 343.074 358.483ZM354.018 341.75C353.826 341.638 353.73 341.47 353.73 341.246C353.73 341.038 353.81 340.862 353.97 340.718C354.13 340.574 354.322 340.534 354.546 340.598C355.906 340.966 357.01 341.774 357.858 343.022C358.69 344.254 359.106 345.67 359.106 347.27C359.106 349.174 358.538 350.798 357.402 352.142C356.266 353.47 354.818 354.134 353.058 354.134C351.346 354.134 349.93 353.518 348.81 352.286C347.69 351.038 347.09 349.502 347.01 347.678C346.914 345.614 347.202 344.054 347.874 342.998C348.53 341.942 349.322 341.342 350.25 341.198C350.906 341.102 351.498 341.206 352.026 341.51C352.554 341.798 352.97 342.222 353.274 342.782C353.562 343.326 353.786 343.91 353.946 344.534C354.09 345.158 354.162 345.782 354.162 346.406C354.162 347.126 354.066 347.686 353.874 348.086C354.514 347.686 355.01 347.19 355.362 346.598C355.698 345.99 355.842 345.358 355.794 344.702C355.762 344.126 355.586 343.574 355.266 343.046C354.946 342.518 354.53 342.086 354.018 341.75ZM347.778 347.486C347.826 347.998 348.202 348.398 348.906 348.686C349.61 348.958 350.306 349.07 350.994 349.022C351.714 348.974 352.394 348.814 353.034 348.542C353.066 348.286 353.082 348.094 353.082 347.966C353.082 347.358 352.834 346.854 352.338 346.454C351.826 346.054 351.122 345.862 350.226 345.878C349.586 345.894 349.01 346.054 348.498 346.358C347.97 346.646 347.73 347.022 347.778 347.486ZM354.018 327.242C353.826 327.13 353.73 326.962 353.73 326.738C353.73 326.53 353.81 326.354 353.97 326.21C354.13 326.066 354.322 326.026 354.546 326.09C355.906 326.458 357.01 327.266 357.858 328.514C358.69 329.746 359.106 331.162 359.106 332.762C359.106 334.666 358.538 336.29 357.402 337.634C356.266 338.962 354.818 339.626 353.058 339.626C351.346 339.626 349.93 339.01 348.81 337.778C347.69 336.53 347.09 334.994 347.01 333.17C346.914 331.106 347.202 329.546 347.874 328.49C348.53 327.434 349.322 326.834 350.25 326.69C350.906 326.594 351.498 326.698 352.026 327.002C352.554 327.29 352.97 327.714 353.274 328.274C353.562 328.818 353.786 329.402 353.946 330.026C354.09 330.65 354.162 331.274 354.162 331.898C354.162 332.618 354.066 333.178 353.874 333.578C354.514 333.178 355.01 332.682 355.362 332.09C355.698 331.482 355.842 330.85 355.794 330.194C355.762 329.618 355.586 329.066 355.266 328.538C354.946 328.01 354.53 327.578 354.018 327.242ZM347.778 332.978C347.826 333.49 348.202 333.89 348.906 334.178C349.61 334.45 350.306 334.562 350.994 334.514C351.714 334.466 352.394 334.306 353.034 334.034C353.066 333.778 353.082 333.586 353.082 333.458C353.082 332.85 352.834 332.346 352.338 331.946C351.826 331.546 351.122 331.354 350.226 331.37C349.586 331.386 349.01 331.546 348.498 331.85C347.97 332.138 347.73 332.514 347.778 332.978Z" fill="white"/>
<path d="M378.89 311.64H329.48V312.58H378.89V311.64Z" fill="#2D2D51"/>
</g>
<defs>
<clipPath id="clip0_53_2">
<rect width="401.64" height="442.6" fill="white" transform="translate(-18)"/>
</clipPath>
</defs>
</svg>
